# xmcd
#
# Track frame offsets:
#	150
#	30362
#	55924
#	80957
#	102232
#	125512
#	154229
#	189602
#	208807
#	254854
#	290789
#
# Disc length: 4482 seconds
#
# Revision: 1
# Processed by: cddbd v1.5.2PL0 Copyright (c) Steve Scherf et al.
# Submitted via: audiograbber 1.83.01
#
DISCID=ac11800b
DTITLE=M People - Bizarre Fruit 2
DYEAR=1995
DGENRE=House
TTITLE0=M People - Itchycoo Park
TTITLE1=M People - Walk away
TTITLE2=M People - Search for the hero
TTITLE3=M People - Colour my life
TTITLE4=M People - Someday
TTITLE5=M People - Moving on up
TTITLE6=M People - Itchycoo Park (Morales Classic Club Mix)
TTITLE7=M People - Search for the hero (US Remix)
TTITLE8=M People - Open your heart (Brothers in Rhythm Soundtrack)
TTITLE9=M People - Love rendevouz (K-Klass Klub Mix)
TTITLE10=M People - Padlock
EXTD=
EXTT0=
EXTT1=
EXTT2=
EXTT3=
EXTT4=
EXTT5=
EXTT6=
EXTT7=
EXTT8=
EXTT9=
EXTT10=
PLAYORDER=
